<svg viewBox="0 0 18 18" fill="none" xmlns="http://www.w3.org/2000/svg"><path d="M8.28295 7.96658L8.23361 7.95179L8.76146 5.8347C8.81784 5.84928 8.88987 5.86543 8.97324 5.88412C9.67913 6.04237 11.1984 6.38297 10.9233 7.49805C10.6279 8.67114 8.87435 8.14427 8.28295 7.96658Z" fill="currentColor"></path><path d="M7.3698 11.4046L7.4555 11.43C8.18407 11.6467 10.2516 12.2615 10.532 11.0972C10.8209 9.97593 8.96224 9.53925 8.13013 9.34375C8.0389 9.32232 7.96002 9.30378 7.89765 9.28756L7.3698 11.4046Z" fill="currentColor"></path><path fill-rule="evenodd" clip-rule="evenodd" d="M9 18C13.9706 18 18 13.9706 18 9C18 4.02944 13.9706 0 9 0C4.02944 0 0 4.02944 0 9C0 13.9706 4.02944 18 9 18ZM12.8732 7.61593C13.0794 6.31428 12.1803 5.63589 10.9322 5.17799L11.3709 3.40745L10.3814 3.16221L9.95392 4.88751C9.88913 4.87105 9.82482 4.85441 9.76074 4.83784C9.56538 4.78731 9.3721 4.73731 9.17436 4.69431L9.6018 2.96901L8.58479 2.71696L8.15735 4.44226L6.13863 3.94193L5.847 5.12223C5.847 5.12223 6.59551 5.285 6.56824 5.30098C6.96889 5.40897 7.03686 5.69278 7.01489 5.90971L6.50629 7.91664L5.80746 10.7404C5.75255 10.8744 5.61847 11.0659 5.34426 10.9993C5.35573 11.012 4.61643 10.8087 4.61643 10.8087L4.12964 12.0541L6.08834 12.5875L5.65196 14.3489L6.63523 14.5926L7.07161 12.8312C7.22991 12.8767 7.38989 12.9139 7.54471 12.95C7.66051 12.9769 7.77355 13.0032 7.8807 13.0318L7.44432 14.7931L8.42939 15.0373L8.86577 13.2759C10.5611 13.5993 11.841 13.448 12.4129 11.7791C12.8726 10.4484 12.4427 9.68975 11.5496 9.18998C12.2207 9.02654 12.7174 8.56346 12.8732 7.61593Z" fill="currentColor"></path></svg>