<svg viewBox="0 0 18 18" fill="none" xmlns="http://www.w3.org/2000/svg"><path fill-rule="evenodd" clip-rule="evenodd" d="M9 18C13.9706 18 18 13.9706 18 9C18 4.02944 13.9706 0 9 0C4.02944 0 0 4.02944 0 9C0 13.9706 4.02944 18 9 18ZM7.35176 14.4353V14.9449C7.35176 15.6 10.9611 15.6 10.9611 14.9449C10.9671 14.853 10.9653 14.7473 10.9633 14.631C10.9623 14.5686 10.9611 14.5033 10.9611 14.4353C10.9611 14.3561 10.9621 14.2169 10.9635 14.0308C10.9662 13.6553 10.9702 13.0887 10.9702 12.438C10.9702 11.7591 10.7373 11.3143 10.4758 11.0899C12.0975 10.9097 13.8 10.2945 13.8 7.49748C13.8 6.70268 13.5185 6.05289 13.0519 5.54385C13.1271 5.35941 13.3771 4.61921 12.9797 3.61691C12.9797 3.61691 12.3693 3.42094 10.9793 4.36318C10.3981 4.20179 9.77501 4.1211 9.15676 4.11806C8.5379 4.1211 7.9148 4.20179 7.33417 4.36318C5.94357 3.42094 5.33199 3.61691 5.33199 3.61691C4.93581 4.61921 5.18577 5.35941 5.2604 5.54385C4.79505 6.05289 4.5111 6.70268 4.5111 7.49748C4.5111 10.2878 6.21052 10.9121 7.82743 11.0959C7.61933 11.2779 7.43125 11.5989 7.36511 12.0691C6.95072 12.2554 5.89564 12.5769 5.24645 11.4642C5.24645 11.4642 4.86179 10.7653 4.13129 10.7137C4.13129 10.7137 3.42022 10.704 4.08154 11.156C4.08154 11.156 4.55843 11.3799 4.8897 12.2208C4.8897 12.2208 5.31683 13.6369 7.34206 13.197C7.34398 13.5177 7.34658 13.7967 7.3486 14.0142C7.35041 14.2086 7.35176 14.3537 7.35176 14.4353Z" fill="currentColor"></path></svg>