<svg viewBox="0 0 18 18" fill="none" xmlns="http://www.w3.org/2000/svg"><path d="M11.3058 6.37751C11.4643 7.01298 11.0775 7.65657 10.4421 7.81501C9.80661 7.97345 9.16302 7.58674 9.00458 6.95127C8.84614 6.3158 9.23285 5.67221 9.86831 5.51377C10.5038 5.35533 11.1474 5.74204 11.3058 6.37751Z" fill="currentColor"></path><path fill-rule="evenodd" clip-rule="evenodd" d="M9 18C13.9706 18 18 13.9706 18 9C18 4.02944 13.9706 0 9 0C4.02944 0 0 4.02944 0 9C0 13.9706 4.02944 18 9 18ZM10.98 10.0541C12.8102 9.59778 13.9381 7.80131 13.4994 6.04155C13.0606 4.28178 11.2213 3.22513 9.39116 3.68144C7.56101 4.13774 6.43306 5.93422 6.87182 7.69398C6.97647 8.11372 7.1608 8.49345 7.40569 8.8222L5.3739 12.0582C5.30459 12.1686 5.28324 12.3025 5.31477 12.4289L5.73708 14.1228C5.7691 14.2511 5.89912 14.3293 6.02751 14.2973L7.81697 13.8511C7.93712 13.8211 8.04101 13.7458 8.10686 13.641L10.295 10.1559C10.5216 10.1446 10.7509 10.1112 10.98 10.0541Z" fill="currentColor"></path></svg>