<svg viewBox="0 0 18 18" fill="none" xmlns="http://www.w3.org/2000/svg"><path fill-rule="evenodd" clip-rule="evenodd" d="M9 18C13.9706 18 18 13.9706 18 9C18 4.02944 13.9706 0 9 0C4.02944 0 0 4.02944 0 9C0 13.9706 4.02944 18 9 18ZM10.5074 5.12274C10.7369 4.89317 11.1091 4.89317 11.3387 5.12274L12.8772 6.6612C13.1067 6.89077 13.1067 7.26298 12.8772 7.49256L10.9541 9.41563C10.7588 9.6109 10.7588 9.92748 10.9541 10.1227C11.1494 10.318 11.4659 10.318 11.6612 10.1227L13.5843 8.19966C14.2044 7.57957 14.2044 6.57419 13.5843 5.95409L12.0458 4.41563C11.4257 3.79554 10.4203 3.79554 9.80025 4.41563L7.87718 6.33871C7.68191 6.53397 7.68191 6.85055 7.87718 7.04582C8.07244 7.24108 8.38902 7.24108 8.58428 7.04582L10.5074 5.12274ZM11.0843 7.62274C11.2795 7.42748 11.2795 7.1109 11.0843 6.91563C10.889 6.72037 10.5724 6.72037 10.3772 6.91563L7.10794 10.1849C6.91268 10.3801 6.91268 10.6967 7.10794 10.892C7.30321 11.0872 7.61979 11.0872 7.81505 10.892L11.0843 7.62274ZM7.04582 8.5843C7.24108 8.38904 7.24108 8.07246 7.04582 7.8772C6.85055 7.68194 6.53397 7.68194 6.33871 7.8772L4.41563 9.80027C3.79554 10.4204 3.79554 11.4257 4.41563 12.0458L5.9541 13.5843C6.57419 14.2044 7.57957 14.2044 8.19966 13.5843L10.1227 11.6612C10.318 11.466 10.318 11.1494 10.1227 10.9541C9.92748 10.7589 9.6109 10.7589 9.41563 10.9541L7.49256 12.8772C7.26299 13.1068 6.89077 13.1068 6.6612 12.8772L5.12274 11.3387C4.89317 11.1092 4.89317 10.737 5.12274 10.5074L7.04582 8.5843Z" fill="currentColor"></path></svg>