<?xml version="1.0" encoding="UTF-8" standalone="no"?>
<!-- Generated by IcoMoon.io -->

<svg
   version="1.1"
   width="512"
   height="512"
   viewBox="0 0 512 512"
   id="svg129"
   sodipodi:docname="pencil.svg"
   inkscape:version="1.2.2 (b0a8486541, 2022-12-01)"
   xmlns:inkscape="http://www.inkscape.org/namespaces/inkscape"
   xmlns:sodipodi="http://sodipodi.sourceforge.net/DTD/sodipodi-0.dtd"
   xmlns="http://www.w3.org/2000/svg"
   xmlns:svg="http://www.w3.org/2000/svg">
  <defs
     id="defs133" />
  <sodipodi:namedview
     id="namedview131"
     pagecolor="#ffffff"
     bordercolor="#000000"
     borderopacity="0.25"
     inkscape:showpageshadow="2"
     inkscape:pageopacity="0.0"
     inkscape:pagecheckerboard="0"
     inkscape:deskcolor="#d1d1d1"
     showgrid="false"
     inkscape:zoom="1.6953125"
     inkscape:cx="256"
     inkscape:cy="256.88479"
     inkscape:window-width="1854"
     inkscape:window-height="1011"
     inkscape:window-x="66"
     inkscape:window-y="32"
     inkscape:window-maximized="1"
     inkscape:current-layer="svg129" />
  <g
     id="icomoon-ignore">
    <line
       stroke-width="1"
       x1="16"
       y1="0"
       x2="16"
       y2="512"
       stroke="#449FDB"
       opacity="0.3"
       id="line2" />
    <line
       stroke-width="1"
       x1="32"
       y1="0"
       x2="32"
       y2="512"
       stroke="#449FDB"
       opacity="1"
       id="line4" />
    <line
       stroke-width="1"
       x1="48"
       y1="0"
       x2="48"
       y2="512"
       stroke="#449FDB"
       opacity="0.3"
       id="line6" />
    <line
       stroke-width="1"
       x1="64"
       y1="0"
       x2="64"
       y2="512"
       stroke="#449FDB"
       opacity="1"
       id="line8" />
    <line
       stroke-width="1"
       x1="80"
       y1="0"
       x2="80"
       y2="512"
       stroke="#449FDB"
       opacity="0.3"
       id="line10" />
    <line
       stroke-width="1"
       x1="96"
       y1="0"
       x2="96"
       y2="512"
       stroke="#449FDB"
       opacity="1"
       id="line12" />
    <line
       stroke-width="1"
       x1="112"
       y1="0"
       x2="112"
       y2="512"
       stroke="#449FDB"
       opacity="0.3"
       id="line14" />
    <line
       stroke-width="1"
       x1="128"
       y1="0"
       x2="128"
       y2="512"
       stroke="#449FDB"
       opacity="1"
       id="line16" />
    <line
       stroke-width="1"
       x1="144"
       y1="0"
       x2="144"
       y2="512"
       stroke="#449FDB"
       opacity="0.3"
       id="line18" />
    <line
       stroke-width="1"
       x1="160"
       y1="0"
       x2="160"
       y2="512"
       stroke="#449FDB"
       opacity="1"
       id="line20" />
    <line
       stroke-width="1"
       x1="176"
       y1="0"
       x2="176"
       y2="512"
       stroke="#449FDB"
       opacity="0.3"
       id="line22" />
    <line
       stroke-width="1"
       x1="192"
       y1="0"
       x2="192"
       y2="512"
       stroke="#449FDB"
       opacity="1"
       id="line24" />
    <line
       stroke-width="1"
       x1="208"
       y1="0"
       x2="208"
       y2="512"
       stroke="#449FDB"
       opacity="0.3"
       id="line26" />
    <line
       stroke-width="1"
       x1="224"
       y1="0"
       x2="224"
       y2="512"
       stroke="#449FDB"
       opacity="1"
       id="line28" />
    <line
       stroke-width="1"
       x1="240"
       y1="0"
       x2="240"
       y2="512"
       stroke="#449FDB"
       opacity="0.3"
       id="line30" />
    <line
       stroke-width="1"
       x1="256"
       y1="0"
       x2="256"
       y2="512"
       stroke="#449FDB"
       opacity="1"
       id="line32" />
    <line
       stroke-width="1"
       x1="272"
       y1="0"
       x2="272"
       y2="512"
       stroke="#449FDB"
       opacity="0.3"
       id="line34" />
    <line
       stroke-width="1"
       x1="288"
       y1="0"
       x2="288"
       y2="512"
       stroke="#449FDB"
       opacity="1"
       id="line36" />
    <line
       stroke-width="1"
       x1="304"
       y1="0"
       x2="304"
       y2="512"
       stroke="#449FDB"
       opacity="0.3"
       id="line38" />
    <line
       stroke-width="1"
       x1="320"
       y1="0"
       x2="320"
       y2="512"
       stroke="#449FDB"
       opacity="1"
       id="line40" />
    <line
       stroke-width="1"
       x1="336"
       y1="0"
       x2="336"
       y2="512"
       stroke="#449FDB"
       opacity="0.3"
       id="line42" />
    <line
       stroke-width="1"
       x1="352"
       y1="0"
       x2="352"
       y2="512"
       stroke="#449FDB"
       opacity="1"
       id="line44" />
    <line
       stroke-width="1"
       x1="368"
       y1="0"
       x2="368"
       y2="512"
       stroke="#449FDB"
       opacity="0.3"
       id="line46" />
    <line
       stroke-width="1"
       x1="384"
       y1="0"
       x2="384"
       y2="512"
       stroke="#449FDB"
       opacity="1"
       id="line48" />
    <line
       stroke-width="1"
       x1="400"
       y1="0"
       x2="400"
       y2="512"
       stroke="#449FDB"
       opacity="0.3"
       id="line50" />
    <line
       stroke-width="1"
       x1="416"
       y1="0"
       x2="416"
       y2="512"
       stroke="#449FDB"
       opacity="1"
       id="line52" />
    <line
       stroke-width="1"
       x1="432"
       y1="0"
       x2="432"
       y2="512"
       stroke="#449FDB"
       opacity="0.3"
       id="line54" />
    <line
       stroke-width="1"
       x1="448"
       y1="0"
       x2="448"
       y2="512"
       stroke="#449FDB"
       opacity="1"
       id="line56" />
    <line
       stroke-width="1"
       x1="464"
       y1="0"
       x2="464"
       y2="512"
       stroke="#449FDB"
       opacity="0.3"
       id="line58" />
    <line
       stroke-width="1"
       x1="480"
       y1="0"
       x2="480"
       y2="512"
       stroke="#449FDB"
       opacity="1"
       id="line60" />
    <line
       stroke-width="1"
       x1="496"
       y1="0"
       x2="496"
       y2="512"
       stroke="#449FDB"
       opacity="0.3"
       id="line62" />
    <line
       stroke-width="1"
       x1="0"
       y1="16"
       x2="512"
       y2="16"
       stroke="#449FDB"
       opacity="0.3"
       id="line64" />
    <line
       stroke-width="1"
       x1="0"
       y1="32"
       x2="512"
       y2="32"
       stroke="#449FDB"
       opacity="1"
       id="line66" />
    <line
       stroke-width="1"
       x1="0"
       y1="48"
       x2="512"
       y2="48"
       stroke="#449FDB"
       opacity="0.3"
       id="line68" />
    <line
       stroke-width="1"
       x1="0"
       y1="64"
       x2="512"
       y2="64"
       stroke="#449FDB"
       opacity="1"
       id="line70" />
    <line
       stroke-width="1"
       x1="0"
       y1="80"
       x2="512"
       y2="80"
       stroke="#449FDB"
       opacity="0.3"
       id="line72" />
    <line
       stroke-width="1"
       x1="0"
       y1="96"
       x2="512"
       y2="96"
       stroke="#449FDB"
       opacity="1"
       id="line74" />
    <line
       stroke-width="1"
       x1="0"
       y1="112"
       x2="512"
       y2="112"
       stroke="#449FDB"
       opacity="0.3"
       id="line76" />
    <line
       stroke-width="1"
       x1="0"
       y1="128"
       x2="512"
       y2="128"
       stroke="#449FDB"
       opacity="1"
       id="line78" />
    <line
       stroke-width="1"
       x1="0"
       y1="144"
       x2="512"
       y2="144"
       stroke="#449FDB"
       opacity="0.3"
       id="line80" />
    <line
       stroke-width="1"
       x1="0"
       y1="160"
       x2="512"
       y2="160"
       stroke="#449FDB"
       opacity="1"
       id="line82" />
    <line
       stroke-width="1"
       x1="0"
       y1="176"
       x2="512"
       y2="176"
       stroke="#449FDB"
       opacity="0.3"
       id="line84" />
    <line
       stroke-width="1"
       x1="0"
       y1="192"
       x2="512"
       y2="192"
       stroke="#449FDB"
       opacity="1"
       id="line86" />
    <line
       stroke-width="1"
       x1="0"
       y1="208"
       x2="512"
       y2="208"
       stroke="#449FDB"
       opacity="0.3"
       id="line88" />
    <line
       stroke-width="1"
       x1="0"
       y1="224"
       x2="512"
       y2="224"
       stroke="#449FDB"
       opacity="1"
       id="line90" />
    <line
       stroke-width="1"
       x1="0"
       y1="240"
       x2="512"
       y2="240"
       stroke="#449FDB"
       opacity="0.3"
       id="line92" />
    <line
       stroke-width="1"
       x1="0"
       y1="256"
       x2="512"
       y2="256"
       stroke="#449FDB"
       opacity="1"
       id="line94" />
    <line
       stroke-width="1"
       x1="0"
       y1="272"
       x2="512"
       y2="272"
       stroke="#449FDB"
       opacity="0.3"
       id="line96" />
    <line
       stroke-width="1"
       x1="0"
       y1="288"
       x2="512"
       y2="288"
       stroke="#449FDB"
       opacity="1"
       id="line98" />
    <line
       stroke-width="1"
       x1="0"
       y1="304"
       x2="512"
       y2="304"
       stroke="#449FDB"
       opacity="0.3"
       id="line100" />
    <line
       stroke-width="1"
       x1="0"
       y1="320"
       x2="512"
       y2="320"
       stroke="#449FDB"
       opacity="1"
       id="line102" />
    <line
       stroke-width="1"
       x1="0"
       y1="336"
       x2="512"
       y2="336"
       stroke="#449FDB"
       opacity="0.3"
       id="line104" />
    <line
       stroke-width="1"
       x1="0"
       y1="352"
       x2="512"
       y2="352"
       stroke="#449FDB"
       opacity="1"
       id="line106" />
    <line
       stroke-width="1"
       x1="0"
       y1="368"
       x2="512"
       y2="368"
       stroke="#449FDB"
       opacity="0.3"
       id="line108" />
    <line
       stroke-width="1"
       x1="0"
       y1="384"
       x2="512"
       y2="384"
       stroke="#449FDB"
       opacity="1"
       id="line110" />
    <line
       stroke-width="1"
       x1="0"
       y1="400"
       x2="512"
       y2="400"
       stroke="#449FDB"
       opacity="0.3"
       id="line112" />
    <line
       stroke-width="1"
       x1="0"
       y1="416"
       x2="512"
       y2="416"
       stroke="#449FDB"
       opacity="1"
       id="line114" />
    <line
       stroke-width="1"
       x1="0"
       y1="432"
       x2="512"
       y2="432"
       stroke="#449FDB"
       opacity="0.3"
       id="line116" />
    <line
       stroke-width="1"
       x1="0"
       y1="448"
       x2="512"
       y2="448"
       stroke="#449FDB"
       opacity="1"
       id="line118" />
    <line
       stroke-width="1"
       x1="0"
       y1="464"
       x2="512"
       y2="464"
       stroke="#449FDB"
       opacity="0.3"
       id="line120" />
    <line
       stroke-width="1"
       x1="0"
       y1="480"
       x2="512"
       y2="480"
       stroke="#449FDB"
       opacity="1"
       id="line122" />
    <line
       stroke-width="1"
       x1="0"
       y1="496"
       x2="512"
       y2="496"
       stroke="#449FDB"
       opacity="0.3"
       id="line124" />
  </g>
  <path
     d="M432 0c44.182 0 80 35.817 80 80 0 18.010-5.955 34.629-16 48l-32 32-112-112 32-32c13.371-10.045 29.989-16 48-16zM32 368l-32 144 144-32 296-296-112-112-296 296zM357.789 181.789l-224 224-27.578-27.578 224-224 27.578 27.578z"
     id="path127"
     style="fill:#ffffff;fill-opacity:1" />
</svg>
