<svg viewBox="0 0 18 18" fill="none" xmlns="http://www.w3.org/2000/svg"><path fill-rule="evenodd" clip-rule="evenodd" d="M9 18C13.9706 18 18 13.9706 18 9C18 4.02944 13.9706 0 9 0C4.02944 0 0 4.02944 0 9C0 13.9706 4.02944 18 9 18ZM13.3824 7.48962C13.3824 10.2006 11.3188 13.327 7.54505 13.3271C6.38624 13.3271 5.30803 12.9875 4.40002 12.4055C4.56063 12.4245 4.72403 12.4339 4.88943 12.4339C5.85084 12.4339 6.73545 12.1061 7.43766 11.5557C6.53965 11.5391 5.78224 10.9459 5.52104 10.1307C5.64604 10.1547 5.77464 10.1677 5.90664 10.1677C6.09384 10.1677 6.27524 10.1425 6.44764 10.0955C5.50884 9.90745 4.80163 9.07784 4.80163 8.08423C4.80163 8.07503 4.80163 8.06664 4.80193 8.05803C5.07833 8.21183 5.39454 8.30423 5.73114 8.31463C5.18033 7.94703 4.81813 7.31862 4.81813 6.60681C4.81813 6.23101 4.91973 5.87881 5.09593 5.5756C6.10774 6.81702 7.61976 7.63342 9.32498 7.71923C9.28977 7.56902 9.27177 7.41242 9.27177 7.25142C9.27177 6.11881 10.1906 5.2 11.3236 5.2C11.9138 5.2 12.4468 5.4494 12.8212 5.84821C13.2886 5.75601 13.7276 5.5852 14.124 5.3502C13.9706 5.82921 13.6454 6.23101 13.2218 6.48501C13.6368 6.43541 14.0324 6.32541 14.4 6.16201C14.1254 6.57341 13.7772 6.93482 13.3766 7.22442C13.3806 7.31242 13.3824 7.40082 13.3824 7.48962Z" fill="currentColor"></path></svg>